<?xml version="1.0" encoding="UTF-8" standalone="no"?>
<!DOCTYPE svg PUBLIC "-//W3C//DTD SVG 1.1//EN"
 "http://www.w3.org/Graphics/SVG/1.1/DTD/svg11.dtd">
<!-- Generated by graphviz version 2.43.0 (0)
 -->
<!-- Title: AST Pages: 1 -->
<svg width="139pt" height="188pt"
 viewBox="0.00 0.00 139.00 188.00" xmlns="http://www.w3.org/2000/svg" xmlns:xlink="http://www.w3.org/1999/xlink">
<g id="graph0" class="graph" transform="scale(1 1) rotate(0) translate(4 184)">
<title>AST</title>
<polygon fill="#fafafa" stroke="transparent" points="-4,4 -4,-184 135,-184 135,4 -4,4"/>
<!-- n0 -->
<g id="node1" class="node">
<title>n0</title>
<path fill="#6a1b9a" stroke="#90caf9" d="M83,-180C83,-180 53,-180 53,-180 47,-180 41,-174 41,-168 41,-168 41,-156 41,-156 41,-150 47,-144 53,-144 53,-144 83,-144 83,-144 89,-144 95,-150 95,-156 95,-156 95,-168 95,-168 95,-174 89,-180 83,-180"/>
<text text-anchor="middle" x="68" y="-159.2" font-family="monospace" font-size="11.00" fill="white">or</text>
</g>
<!-- n1 -->
<g id="node2" class="node">
<title>n1</title>
<path fill="#00838f" stroke="#90caf9" d="M47,-108C47,-108 17,-108 17,-108 11,-108 5,-102 5,-96 5,-96 5,-84 5,-84 5,-78 11,-72 17,-72 17,-72 47,-72 47,-72 53,-72 59,-78 59,-84 59,-84 59,-96 59,-96 59,-102 53,-108 47,-108"/>
<text text-anchor="start" x="15" y="-92.2" font-family="monospace" font-size="11.00" fill="white">scale</text>
<text text-anchor="start" x="21" y="-82.8" font-family="monospace" font-size="9.00" fill="white">AAPL</text>
</g>
<!-- n0&#45;&gt;n1 -->
<g id="edge1" class="edge">
<title>n0&#45;&gt;n1</title>
<path fill="none" stroke="#90caf9" stroke-width="1.5" d="M59.1,-143.7C53.52,-132.85 46.36,-118.92 40.8,-108.1"/>
</g>
<!-- n3 -->
<g id="node4" class="node">
<title>n3</title>
<path fill="#9e9e9e" stroke="#90caf9" d="M119,-108C119,-108 89,-108 89,-108 83,-108 77,-102 77,-96 77,-96 77,-84 77,-84 77,-78 83,-72 89,-72 89,-72 119,-72 119,-72 125,-72 131,-78 131,-84 131,-84 131,-96 131,-96 131,-102 125,-108 119,-108"/>
<text text-anchor="middle" x="104" y="-87.2" font-family="monospace" font-size="11.00" fill="white">zero</text>
</g>
<!-- n0&#45;&gt;n3 -->
<g id="edge2" class="edge">
<title>n0&#45;&gt;n3</title>
<path fill="none" stroke="#90caf9" stroke-width="1.5" d="M76.9,-143.7C82.48,-132.85 89.64,-118.92 95.2,-108.1"/>
</g>
<!-- n2 -->
<g id="node3" class="node">
<title>n2</title>
<path fill="#43a047" stroke="#90caf9" d="M52,-36C52,-36 12,-36 12,-36 6,-36 0,-30 0,-24 0,-24 0,-12 0,-12 0,-6 6,0 12,0 12,0 52,0 52,0 58,0 64,-6 64,-12 64,-12 64,-24 64,-24 64,-30 58,-36 52,-36"/>
<text text-anchor="middle" x="32" y="-15.2" font-family="monospace" font-size="11.00" fill="white">one USD</text>
</g>
<!-- n1&#45;&gt;n2 -->
<g id="edge3" class="edge">
<title>n1&#45;&gt;n2</title>
<path fill="none" stroke="#90caf9" stroke-width="1.5" d="M32,-71.7C32,-60.85 32,-46.92 32,-36.1"/>
</g>
</g>
</svg>
