<?xml version="1.0" encoding="UTF-8" standalone="no"?>
<!DOCTYPE svg PUBLIC "-//W3C//DTD SVG 1.1//EN"
 "http://www.w3.org/Graphics/SVG/1.1/DTD/svg11.dtd">
<!-- Generated by graphviz version 2.43.0 (0)
 -->
<!-- Title: AST Pages: 1 -->
<svg width="470pt" height="476pt"
 viewBox="0.00 0.00 469.50 476.00" xmlns="http://www.w3.org/2000/svg" xmlns:xlink="http://www.w3.org/1999/xlink">
<g id="graph0" class="graph" transform="scale(1 1) rotate(0) translate(4 472)">
<title>AST</title>
<polygon fill="#fafafa" stroke="transparent" points="-4,4 -4,-472 465.5,-472 465.5,4 -4,4"/>
<!-- n0 -->
<g id="node1" class="node">
<title>n0</title>
<path fill="#1565c0" stroke="#90caf9" d="M396,-468C396,-468 366,-468 366,-468 360,-468 354,-462 354,-456 354,-456 354,-444 354,-444 354,-438 360,-432 366,-432 366,-432 396,-432 396,-432 402,-432 408,-438 408,-444 408,-444 408,-456 408,-456 408,-462 402,-468 396,-468"/>
<text text-anchor="middle" x="381" y="-447.2" font-family="monospace" font-size="11.00" fill="white">and</text>
</g>
<!-- n1 -->
<g id="node2" class="node">
<title>n1</title>
<path fill="#1565c0" stroke="#90caf9" d="M360,-396C360,-396 330,-396 330,-396 324,-396 318,-390 318,-384 318,-384 318,-372 318,-372 318,-366 324,-360 330,-360 330,-360 360,-360 360,-360 366,-360 372,-366 372,-372 372,-372 372,-384 372,-384 372,-390 366,-396 360,-396"/>
<text text-anchor="middle" x="345" y="-375.2" font-family="monospace" font-size="11.00" fill="white">and</text>
</g>
<!-- n0&#45;&gt;n1 -->
<g id="edge1" class="edge">
<title>n0&#45;&gt;n1</title>
<path fill="none" stroke="#90caf9" stroke-width="1.5" d="M372.1,-431.7C366.52,-420.85 359.36,-406.92 353.8,-396.1"/>
</g>
<!-- n18 -->
<g id="node19" class="node">
<title>n18</title>
<path fill="#e53935" stroke="#90caf9" d="M436,-396C436,-396 406,-396 406,-396 400,-396 394,-390 394,-384 394,-384 394,-372 394,-372 394,-366 400,-360 406,-360 406,-360 436,-360 436,-360 442,-360 448,-366 448,-372 448,-372 448,-384 448,-384 448,-390 442,-396 436,-396"/>
<text text-anchor="middle" x="421" y="-375.2" font-family="monospace" font-size="11.00" fill="white">give</text>
</g>
<!-- n0&#45;&gt;n18 -->
<g id="edge2" class="edge">
<title>n0&#45;&gt;n18</title>
<path fill="none" stroke="#90caf9" stroke-width="1.5" d="M390.89,-431.7C397.09,-420.85 405.05,-406.92 411.23,-396.1"/>
</g>
<!-- n2 -->
<g id="node3" class="node">
<title>n2</title>
<path fill="#1565c0" stroke="#90caf9" d="M283,-324C283,-324 253,-324 253,-324 247,-324 241,-318 241,-312 241,-312 241,-300 241,-300 241,-294 247,-288 253,-288 253,-288 283,-288 283,-288 289,-288 295,-294 295,-300 295,-300 295,-312 295,-312 295,-318 289,-324 283,-324"/>
<text text-anchor="middle" x="268" y="-303.2" font-family="monospace" font-size="11.00" fill="white">and</text>
</g>
<!-- n1&#45;&gt;n2 -->
<g id="edge3" class="edge">
<title>n1&#45;&gt;n2</title>
<path fill="none" stroke="#90caf9" stroke-width="1.5" d="M325.97,-359.7C314.03,-348.85 298.71,-334.92 286.81,-324.1"/>
</g>
<!-- n15 -->
<g id="node16" class="node">
<title>n15</title>
<path fill="#e53935" stroke="#90caf9" d="M360,-324C360,-324 330,-324 330,-324 324,-324 318,-318 318,-312 318,-312 318,-300 318,-300 318,-294 324,-288 330,-288 330,-288 360,-288 360,-288 366,-288 372,-294 372,-300 372,-300 372,-312 372,-312 372,-318 366,-324 360,-324"/>
<text text-anchor="middle" x="345" y="-303.2" font-family="monospace" font-size="11.00" fill="white">give</text>
</g>
<!-- n1&#45;&gt;n15 -->
<g id="edge4" class="edge">
<title>n1&#45;&gt;n15</title>
<path fill="none" stroke="#90caf9" stroke-width="1.5" d="M345,-359.7C345,-348.85 345,-334.92 345,-324.1"/>
</g>
<!-- n3 -->
<g id="node4" class="node">
<title>n3</title>
<path fill="#1565c0" stroke="#90caf9" d="M207,-252C207,-252 177,-252 177,-252 171,-252 165,-246 165,-240 165,-240 165,-228 165,-228 165,-222 171,-216 177,-216 177,-216 207,-216 207,-216 213,-216 219,-222 219,-228 219,-228 219,-240 219,-240 219,-246 213,-252 207,-252"/>
<text text-anchor="middle" x="192" y="-231.2" font-family="monospace" font-size="11.00" fill="white">and</text>
</g>
<!-- n2&#45;&gt;n3 -->
<g id="edge5" class="edge">
<title>n2&#45;&gt;n3</title>
<path fill="none" stroke="#90caf9" stroke-width="1.5" d="M249.21,-287.7C237.43,-276.85 222.31,-262.92 210.57,-252.1"/>
</g>
<!-- n12 -->
<g id="node13" class="node">
<title>n12</title>
<path fill="#e53935" stroke="#90caf9" d="M283,-252C283,-252 253,-252 253,-252 247,-252 241,-246 241,-240 241,-240 241,-228 241,-228 241,-222 247,-216 253,-216 253,-216 283,-216 283,-216 289,-216 295,-222 295,-228 295,-228 295,-240 295,-240 295,-246 289,-252 283,-252"/>
<text text-anchor="middle" x="268" y="-231.2" font-family="monospace" font-size="11.00" fill="white">give</text>
</g>
<!-- n2&#45;&gt;n12 -->
<g id="edge6" class="edge">
<title>n2&#45;&gt;n12</title>
<path fill="none" stroke="#90caf9" stroke-width="1.5" d="M268,-287.7C268,-276.85 268,-262.92 268,-252.1"/>
</g>
<!-- n4 -->
<g id="node5" class="node">
<title>n4</title>
<path fill="#1565c0" stroke="#90caf9" d="M129,-180C129,-180 99,-180 99,-180 93,-180 87,-174 87,-168 87,-168 87,-156 87,-156 87,-150 93,-144 99,-144 99,-144 129,-144 129,-144 135,-144 141,-150 141,-156 141,-156 141,-168 141,-168 141,-174 135,-180 129,-180"/>
<text text-anchor="middle" x="114" y="-159.2" font-family="monospace" font-size="11.00" fill="white">and</text>
</g>
<!-- n3&#45;&gt;n4 -->
<g id="edge7" class="edge">
<title>n3&#45;&gt;n4</title>
<path fill="none" stroke="#90caf9" stroke-width="1.5" d="M172.72,-215.7C160.63,-204.85 145.11,-190.92 133.06,-180.1"/>
</g>
<!-- n9 -->
<g id="node10" class="node">
<title>n9</title>
<path fill="#e53935" stroke="#90caf9" d="M207,-180C207,-180 177,-180 177,-180 171,-180 165,-174 165,-168 165,-168 165,-156 165,-156 165,-150 171,-144 177,-144 177,-144 207,-144 207,-144 213,-144 219,-150 219,-156 219,-156 219,-168 219,-168 219,-174 213,-180 207,-180"/>
<text text-anchor="middle" x="192" y="-159.2" font-family="monospace" font-size="11.00" fill="white">give</text>
</g>
<!-- n3&#45;&gt;n9 -->
<g id="edge8" class="edge">
<title>n3&#45;&gt;n9</title>
<path fill="none" stroke="#90caf9" stroke-width="1.5" d="M192,-215.7C192,-204.85 192,-190.92 192,-180.1"/>
</g>
<!-- n5 -->
<g id="node6" class="node">
<title>n5</title>
<path fill="#00838f" stroke="#90caf9" d="M53.5,-108C53.5,-108 18.5,-108 18.5,-108 12.5,-108 6.5,-102 6.5,-96 6.5,-96 6.5,-84 6.5,-84 6.5,-78 12.5,-72 18.5,-72 18.5,-72 53.5,-72 53.5,-72 59.5,-72 65.5,-78 65.5,-84 65.5,-84 65.5,-96 65.5,-96 65.5,-102 59.5,-108 53.5,-108"/>
<text text-anchor="start" x="19" y="-92.2" font-family="monospace" font-size="11.00" fill="white">scale</text>
<text text-anchor="start" x="14.5" y="-82.8" font-family="monospace" font-size="9.00" fill="white">500000.0</text>
</g>
<!-- n4&#45;&gt;n5 -->
<g id="edge9" class="edge">
<title>n4&#45;&gt;n5</title>
<path fill="none" stroke="#90caf9" stroke-width="1.5" d="M94.72,-143.7C82.63,-132.85 67.11,-118.92 55.06,-108.1"/>
</g>
<!-- n7 -->
<g id="node8" class="node">
<title>n7</title>
<path fill="#00838f" stroke="#90caf9" d="M129,-108C129,-108 99,-108 99,-108 93,-108 87,-102 87,-96 87,-96 87,-84 87,-84 87,-78 93,-72 99,-72 99,-72 129,-72 129,-72 135,-72 141,-78 141,-84 141,-84 141,-96 141,-96 141,-102 135,-108 129,-108"/>
<text text-anchor="start" x="97" y="-92.2" font-family="monospace" font-size="11.00" fill="white">scale</text>
<text text-anchor="start" x="98" y="-82.8" font-family="monospace" font-size="9.00" fill="white">3000.0</text>
</g>
<!-- n4&#45;&gt;n7 -->
<g id="edge10" class="edge">
<title>n4&#45;&gt;n7</title>
<path fill="none" stroke="#90caf9" stroke-width="1.5" d="M114,-143.7C114,-132.85 114,-118.92 114,-108.1"/>
</g>
<!-- n6 -->
<g id="node7" class="node">
<title>n6</title>
<path fill="#43a047" stroke="#90caf9" d="M52,-36C52,-36 12,-36 12,-36 6,-36 0,-30 0,-24 0,-24 0,-12 0,-12 0,-6 6,0 12,0 12,0 52,0 52,0 58,0 64,-6 64,-12 64,-12 64,-24 64,-24 64,-30 58,-36 52,-36"/>
<text text-anchor="middle" x="32" y="-15.2" font-family="monospace" font-size="11.00" fill="white">one ARS</text>
</g>
<!-- n5&#45;&gt;n6 -->
<g id="edge11" class="edge">
<title>n5&#45;&gt;n6</title>
<path fill="none" stroke="#90caf9" stroke-width="1.5" d="M35.01,-71.7C34.39,-60.85 33.6,-46.92 32.98,-36.1"/>
</g>
<!-- n8 -->
<g id="node9" class="node">
<title>n8</title>
<path fill="#43a047" stroke="#90caf9" d="M134,-36C134,-36 94,-36 94,-36 88,-36 82,-30 82,-24 82,-24 82,-12 82,-12 82,-6 88,0 94,0 94,0 134,0 134,0 140,0 146,-6 146,-12 146,-12 146,-24 146,-24 146,-30 140,-36 134,-36"/>
<text text-anchor="middle" x="114" y="-15.2" font-family="monospace" font-size="11.00" fill="white">one EUR</text>
</g>
<!-- n7&#45;&gt;n8 -->
<g id="edge12" class="edge">
<title>n7&#45;&gt;n8</title>
<path fill="none" stroke="#90caf9" stroke-width="1.5" d="M114,-71.7C114,-60.85 114,-46.92 114,-36.1"/>
</g>
<!-- n10 -->
<g id="node11" class="node">
<title>n10</title>
<path fill="#00838f" stroke="#90caf9" d="M209.5,-108C209.5,-108 174.5,-108 174.5,-108 168.5,-108 162.5,-102 162.5,-96 162.5,-96 162.5,-84 162.5,-84 162.5,-78 168.5,-72 174.5,-72 174.5,-72 209.5,-72 209.5,-72 215.5,-72 221.5,-78 221.5,-84 221.5,-84 221.5,-96 221.5,-96 221.5,-102 215.5,-108 209.5,-108"/>
<text text-anchor="start" x="175" y="-92.2" font-family="monospace" font-size="11.00" fill="white">scale</text>
<text text-anchor="start" x="170.5" y="-82.8" font-family="monospace" font-size="9.00" fill="white">200000.0</text>
</g>
<!-- n9&#45;&gt;n10 -->
<g id="edge13" class="edge">
<title>n9&#45;&gt;n10</title>
<path fill="none" stroke="#90caf9" stroke-width="1.5" d="M192,-143.7C192,-132.85 192,-118.92 192,-108.1"/>
</g>
<!-- n11 -->
<g id="node12" class="node">
<title>n11</title>
<path fill="#43a047" stroke="#90caf9" d="M216,-36C216,-36 176,-36 176,-36 170,-36 164,-30 164,-24 164,-24 164,-12 164,-12 164,-6 170,0 176,0 176,0 216,0 216,0 222,0 228,-6 228,-12 228,-12 228,-24 228,-24 228,-30 222,-36 216,-36"/>
<text text-anchor="middle" x="196" y="-15.2" font-family="monospace" font-size="11.00" fill="white">one ARS</text>
</g>
<!-- n10&#45;&gt;n11 -->
<g id="edge14" class="edge">
<title>n10&#45;&gt;n11</title>
<path fill="none" stroke="#90caf9" stroke-width="1.5" d="M192.99,-71.7C193.61,-60.85 194.4,-46.92 195.02,-36.1"/>
</g>
<!-- n13 -->
<g id="node14" class="node">
<title>n13</title>
<path fill="#00838f" stroke="#90caf9" d="M283,-180C283,-180 253,-180 253,-180 247,-180 241,-174 241,-168 241,-168 241,-156 241,-156 241,-150 247,-144 253,-144 253,-144 283,-144 283,-144 289,-144 295,-150 295,-156 295,-156 295,-168 295,-168 295,-174 289,-180 283,-180"/>
<text text-anchor="start" x="251" y="-164.2" font-family="monospace" font-size="11.00" fill="white">scale</text>
<text text-anchor="start" x="249.5" y="-154.8" font-family="monospace" font-size="9.00" fill="white">50000.0</text>
</g>
<!-- n12&#45;&gt;n13 -->
<g id="edge15" class="edge">
<title>n12&#45;&gt;n13</title>
<path fill="none" stroke="#90caf9" stroke-width="1.5" d="M268,-215.7C268,-204.85 268,-190.92 268,-180.1"/>
</g>
<!-- n14 -->
<g id="node15" class="node">
<title>n14</title>
<path fill="#43a047" stroke="#90caf9" d="M292,-108C292,-108 252,-108 252,-108 246,-108 240,-102 240,-96 240,-96 240,-84 240,-84 240,-78 246,-72 252,-72 252,-72 292,-72 292,-72 298,-72 304,-78 304,-84 304,-84 304,-96 304,-96 304,-102 298,-108 292,-108"/>
<text text-anchor="middle" x="272" y="-87.2" font-family="monospace" font-size="11.00" fill="white">one ARS</text>
</g>
<!-- n13&#45;&gt;n14 -->
<g id="edge16" class="edge">
<title>n13&#45;&gt;n14</title>
<path fill="none" stroke="#90caf9" stroke-width="1.5" d="M268.99,-143.7C269.61,-132.85 270.4,-118.92 271.02,-108.1"/>
</g>
<!-- n16 -->
<g id="node17" class="node">
<title>n16</title>
<path fill="#00838f" stroke="#90caf9" d="M360,-252C360,-252 330,-252 330,-252 324,-252 318,-246 318,-240 318,-240 318,-228 318,-228 318,-222 324,-216 330,-216 330,-216 360,-216 360,-216 366,-216 372,-222 372,-228 372,-228 372,-240 372,-240 372,-246 366,-252 360,-252"/>
<text text-anchor="start" x="328" y="-236.2" font-family="monospace" font-size="11.00" fill="white">scale</text>
<text text-anchor="start" x="329" y="-226.8" font-family="monospace" font-size="9.00" fill="white">1000.0</text>
</g>
<!-- n15&#45;&gt;n16 -->
<g id="edge17" class="edge">
<title>n15&#45;&gt;n16</title>
<path fill="none" stroke="#90caf9" stroke-width="1.5" d="M345,-287.7C345,-276.85 345,-262.92 345,-252.1"/>
</g>
<!-- n17 -->
<g id="node18" class="node">
<title>n17</title>
<path fill="#43a047" stroke="#90caf9" d="M365,-180C365,-180 325,-180 325,-180 319,-180 313,-174 313,-168 313,-168 313,-156 313,-156 313,-150 319,-144 325,-144 325,-144 365,-144 365,-144 371,-144 377,-150 377,-156 377,-156 377,-168 377,-168 377,-174 371,-180 365,-180"/>
<text text-anchor="middle" x="345" y="-159.2" font-family="monospace" font-size="11.00" fill="white">one USD</text>
</g>
<!-- n16&#45;&gt;n17 -->
<g id="edge18" class="edge">
<title>n16&#45;&gt;n17</title>
<path fill="none" stroke="#90caf9" stroke-width="1.5" d="M345,-215.7C345,-204.85 345,-190.92 345,-180.1"/>
</g>
<!-- n19 -->
<g id="node20" class="node">
<title>n19</title>
<path fill="#558b2f" stroke="#90caf9" d="M449.5,-324C449.5,-324 402.5,-324 402.5,-324 396.5,-324 390.5,-318 390.5,-312 390.5,-312 390.5,-300 390.5,-300 390.5,-294 396.5,-288 402.5,-288 402.5,-288 449.5,-288 449.5,-288 455.5,-288 461.5,-294 461.5,-300 461.5,-300 461.5,-312 461.5,-312 461.5,-318 455.5,-324 449.5,-324"/>
<text text-anchor="start" x="398.5" y="-308.2" font-family="monospace" font-size="11.00" fill="white">truncate</text>
<text text-anchor="start" x="399.5" y="-298.8" font-family="monospace" font-size="9.00" fill="white">2026&#45;04&#45;30</text>
</g>
<!-- n18&#45;&gt;n19 -->
<g id="edge19" class="edge">
<title>n18&#45;&gt;n19</title>
<path fill="none" stroke="#90caf9" stroke-width="1.5" d="M422.24,-359.7C423.01,-348.85 424.01,-334.92 424.78,-324.1"/>
</g>
<!-- n20 -->
<g id="node21" class="node">
<title>n20</title>
<path fill="#00838f" stroke="#90caf9" d="M443.5,-252C443.5,-252 408.5,-252 408.5,-252 402.5,-252 396.5,-246 396.5,-240 396.5,-240 396.5,-228 396.5,-228 396.5,-222 402.5,-216 408.5,-216 408.5,-216 443.5,-216 443.5,-216 449.5,-216 455.5,-222 455.5,-228 455.5,-228 455.5,-240 455.5,-240 455.5,-246 449.5,-252 443.5,-252"/>
<text text-anchor="start" x="409" y="-236.2" font-family="monospace" font-size="11.00" fill="white">scale</text>
<text text-anchor="start" x="404.5" y="-226.8" font-family="monospace" font-size="9.00" fill="white">100000.0</text>
</g>
<!-- n19&#45;&gt;n20 -->
<g id="edge20" class="edge">
<title>n19&#45;&gt;n20</title>
<path fill="none" stroke="#90caf9" stroke-width="1.5" d="M426,-287.7C426,-276.85 426,-262.92 426,-252.1"/>
</g>
<!-- n21 -->
<g id="node22" class="node">
<title>n21</title>
<path fill="#43a047" stroke="#90caf9" d="M447,-180C447,-180 407,-180 407,-180 401,-180 395,-174 395,-168 395,-168 395,-156 395,-156 395,-150 401,-144 407,-144 407,-144 447,-144 447,-144 453,-144 459,-150 459,-156 459,-156 459,-168 459,-168 459,-174 453,-180 447,-180"/>
<text text-anchor="middle" x="427" y="-159.2" font-family="monospace" font-size="11.00" fill="white">one ARS</text>
</g>
<!-- n20&#45;&gt;n21 -->
<g id="edge21" class="edge">
<title>n20&#45;&gt;n21</title>
<path fill="none" stroke="#90caf9" stroke-width="1.5" d="M426.25,-215.7C426.4,-204.85 426.6,-190.92 426.76,-180.1"/>
</g>
</g>
</svg>
