<?xml version="1.0" encoding="UTF-8" standalone="no"?>
<!DOCTYPE svg PUBLIC "-//W3C//DTD SVG 1.1//EN"
 "http://www.w3.org/Graphics/SVG/1.1/DTD/svg11.dtd">
<!-- Generated by graphviz version 2.43.0 (0)
 -->
<!-- Title: AST Pages: 1 -->
<svg width="149pt" height="188pt"
 viewBox="0.00 0.00 149.00 188.00" xmlns="http://www.w3.org/2000/svg" xmlns:xlink="http://www.w3.org/1999/xlink">
<g id="graph0" class="graph" transform="scale(1 1) rotate(0) translate(4 184)">
<title>AST</title>
<polygon fill="#fafafa" stroke="transparent" points="-4,4 -4,-184 145,-184 145,4 -4,4"/>
<!-- n0 -->
<g id="node1" class="node">
<title>n0</title>
<path fill="#1565c0" stroke="#90caf9" d="M85,-180C85,-180 55,-180 55,-180 49,-180 43,-174 43,-168 43,-168 43,-156 43,-156 43,-150 49,-144 55,-144 55,-144 85,-144 85,-144 91,-144 97,-150 97,-156 97,-156 97,-168 97,-168 97,-174 91,-180 85,-180"/>
<text text-anchor="middle" x="70" y="-159.2" font-family="monospace" font-size="11.00" fill="white">and</text>
</g>
<!-- n1 -->
<g id="node2" class="node">
<title>n1</title>
<path fill="#e53935" stroke="#90caf9" d="M47,-108C47,-108 17,-108 17,-108 11,-108 5,-102 5,-96 5,-96 5,-84 5,-84 5,-78 11,-72 17,-72 17,-72 47,-72 47,-72 53,-72 59,-78 59,-84 59,-84 59,-96 59,-96 59,-102 53,-108 47,-108"/>
<text text-anchor="middle" x="32" y="-87.2" font-family="monospace" font-size="11.00" fill="white">give</text>
</g>
<!-- n0&#45;&gt;n1 -->
<g id="edge1" class="edge">
<title>n0&#45;&gt;n1</title>
<path fill="none" stroke="#90caf9" stroke-width="1.5" d="M60.61,-143.7C54.72,-132.85 47.15,-118.92 41.29,-108.1"/>
</g>
<!-- n3 -->
<g id="node4" class="node">
<title>n3</title>
<path fill="#43a047" stroke="#90caf9" d="M129,-108C129,-108 89,-108 89,-108 83,-108 77,-102 77,-96 77,-96 77,-84 77,-84 77,-78 83,-72 89,-72 89,-72 129,-72 129,-72 135,-72 141,-78 141,-84 141,-84 141,-96 141,-96 141,-102 135,-108 129,-108"/>
<text text-anchor="middle" x="109" y="-87.2" font-family="monospace" font-size="11.00" fill="white">one EUR</text>
</g>
<!-- n0&#45;&gt;n3 -->
<g id="edge2" class="edge">
<title>n0&#45;&gt;n3</title>
<path fill="none" stroke="#90caf9" stroke-width="1.5" d="M79.64,-143.7C85.69,-132.85 93.45,-118.92 99.47,-108.1"/>
</g>
<!-- n2 -->
<g id="node3" class="node">
<title>n2</title>
<path fill="#43a047" stroke="#90caf9" d="M52,-36C52,-36 12,-36 12,-36 6,-36 0,-30 0,-24 0,-24 0,-12 0,-12 0,-6 6,0 12,0 12,0 52,0 52,0 58,0 64,-6 64,-12 64,-12 64,-24 64,-24 64,-30 58,-36 52,-36"/>
<text text-anchor="middle" x="32" y="-15.2" font-family="monospace" font-size="11.00" fill="white">one USD</text>
</g>
<!-- n1&#45;&gt;n2 -->
<g id="edge3" class="edge">
<title>n1&#45;&gt;n2</title>
<path fill="none" stroke="#90caf9" stroke-width="1.5" d="M32,-71.7C32,-60.85 32,-46.92 32,-36.1"/>
</g>
</g>
</svg>
