<?xml version="1.0" encoding="UTF-8" standalone="no"?>
<!DOCTYPE svg PUBLIC "-//W3C//DTD SVG 1.1//EN"
 "http://www.w3.org/Graphics/SVG/1.1/DTD/svg11.dtd">
<!-- Generated by graphviz version 2.43.0 (0)
 -->
<!-- Title: AST Pages: 1 -->
<svg width="411pt" height="476pt"
 viewBox="0.00 0.00 411.00 476.00" xmlns="http://www.w3.org/2000/svg" xmlns:xlink="http://www.w3.org/1999/xlink">
<g id="graph0" class="graph" transform="scale(1 1) rotate(0) translate(4 472)">
<title>AST</title>
<polygon fill="#fafafa" stroke="transparent" points="-4,4 -4,-472 407,-472 407,4 -4,4"/>
<!-- n0 -->
<g id="node1" class="node">
<title>n0</title>
<path fill="#1565c0" stroke="#90caf9" d="M341.5,-468C341.5,-468 311.5,-468 311.5,-468 305.5,-468 299.5,-462 299.5,-456 299.5,-456 299.5,-444 299.5,-444 299.5,-438 305.5,-432 311.5,-432 311.5,-432 341.5,-432 341.5,-432 347.5,-432 353.5,-438 353.5,-444 353.5,-444 353.5,-456 353.5,-456 353.5,-462 347.5,-468 341.5,-468"/>
<text text-anchor="middle" x="326.5" y="-447.2" font-family="monospace" font-size="11.00" fill="white">and</text>
</g>
<!-- n1 -->
<g id="node2" class="node">
<title>n1</title>
<path fill="#1565c0" stroke="#90caf9" d="M301.5,-396C301.5,-396 271.5,-396 271.5,-396 265.5,-396 259.5,-390 259.5,-384 259.5,-384 259.5,-372 259.5,-372 259.5,-366 265.5,-360 271.5,-360 271.5,-360 301.5,-360 301.5,-360 307.5,-360 313.5,-366 313.5,-372 313.5,-372 313.5,-384 313.5,-384 313.5,-390 307.5,-396 301.5,-396"/>
<text text-anchor="middle" x="286.5" y="-375.2" font-family="monospace" font-size="11.00" fill="white">and</text>
</g>
<!-- n0&#45;&gt;n1 -->
<g id="edge1" class="edge">
<title>n0&#45;&gt;n1</title>
<path fill="none" stroke="#90caf9" stroke-width="1.5" d="M316.61,-431.7C310.41,-420.85 302.45,-406.92 296.27,-396.1"/>
</g>
<!-- n16 -->
<g id="node17" class="node">
<title>n16</title>
<path fill="#558b2f" stroke="#90caf9" d="M391,-396C391,-396 344,-396 344,-396 338,-396 332,-390 332,-384 332,-384 332,-372 332,-372 332,-366 338,-360 344,-360 344,-360 391,-360 391,-360 397,-360 403,-366 403,-372 403,-372 403,-384 403,-384 403,-390 397,-396 391,-396"/>
<text text-anchor="start" x="340" y="-380.2" font-family="monospace" font-size="11.00" fill="white">truncate</text>
<text text-anchor="start" x="341" y="-370.8" font-family="monospace" font-size="9.00" fill="white">2027&#45;12&#45;01</text>
</g>
<!-- n0&#45;&gt;n16 -->
<g id="edge2" class="edge">
<title>n0&#45;&gt;n16</title>
<path fill="none" stroke="#90caf9" stroke-width="1.5" d="M336.63,-431.7C342.99,-420.85 351.15,-406.92 357.48,-396.1"/>
</g>
<!-- n2 -->
<g id="node3" class="node">
<title>n2</title>
<path fill="#1565c0" stroke="#90caf9" d="M220.5,-324C220.5,-324 190.5,-324 190.5,-324 184.5,-324 178.5,-318 178.5,-312 178.5,-312 178.5,-300 178.5,-300 178.5,-294 184.5,-288 190.5,-288 190.5,-288 220.5,-288 220.5,-288 226.5,-288 232.5,-294 232.5,-300 232.5,-300 232.5,-312 232.5,-312 232.5,-318 226.5,-324 220.5,-324"/>
<text text-anchor="middle" x="205.5" y="-303.2" font-family="monospace" font-size="11.00" fill="white">and</text>
</g>
<!-- n1&#45;&gt;n2 -->
<g id="edge3" class="edge">
<title>n1&#45;&gt;n2</title>
<path fill="none" stroke="#90caf9" stroke-width="1.5" d="M266.48,-359.7C253.92,-348.85 237.8,-334.92 225.29,-324.1"/>
</g>
<!-- n13 -->
<g id="node14" class="node">
<title>n13</title>
<path fill="#558b2f" stroke="#90caf9" d="M310,-324C310,-324 263,-324 263,-324 257,-324 251,-318 251,-312 251,-312 251,-300 251,-300 251,-294 257,-288 263,-288 263,-288 310,-288 310,-288 316,-288 322,-294 322,-300 322,-300 322,-312 322,-312 322,-318 316,-324 310,-324"/>
<text text-anchor="start" x="259" y="-308.2" font-family="monospace" font-size="11.00" fill="white">truncate</text>
<text text-anchor="start" x="260" y="-298.8" font-family="monospace" font-size="9.00" fill="white">2027&#45;12&#45;01</text>
</g>
<!-- n1&#45;&gt;n13 -->
<g id="edge4" class="edge">
<title>n1&#45;&gt;n13</title>
<path fill="none" stroke="#90caf9" stroke-width="1.5" d="M286.5,-359.7C286.5,-348.85 286.5,-334.92 286.5,-324.1"/>
</g>
<!-- n3 -->
<g id="node4" class="node">
<title>n3</title>
<path fill="#1565c0" stroke="#90caf9" d="M139.5,-252C139.5,-252 109.5,-252 109.5,-252 103.5,-252 97.5,-246 97.5,-240 97.5,-240 97.5,-228 97.5,-228 97.5,-222 103.5,-216 109.5,-216 109.5,-216 139.5,-216 139.5,-216 145.5,-216 151.5,-222 151.5,-228 151.5,-228 151.5,-240 151.5,-240 151.5,-246 145.5,-252 139.5,-252"/>
<text text-anchor="middle" x="124.5" y="-231.2" font-family="monospace" font-size="11.00" fill="white">and</text>
</g>
<!-- n2&#45;&gt;n3 -->
<g id="edge5" class="edge">
<title>n2&#45;&gt;n3</title>
<path fill="none" stroke="#90caf9" stroke-width="1.5" d="M185.48,-287.7C172.92,-276.85 156.8,-262.92 144.29,-252.1"/>
</g>
<!-- n10 -->
<g id="node11" class="node">
<title>n10</title>
<path fill="#558b2f" stroke="#90caf9" d="M229,-252C229,-252 182,-252 182,-252 176,-252 170,-246 170,-240 170,-240 170,-228 170,-228 170,-222 176,-216 182,-216 182,-216 229,-216 229,-216 235,-216 241,-222 241,-228 241,-228 241,-240 241,-240 241,-246 235,-252 229,-252"/>
<text text-anchor="start" x="178" y="-236.2" font-family="monospace" font-size="11.00" fill="white">truncate</text>
<text text-anchor="start" x="179" y="-226.8" font-family="monospace" font-size="9.00" fill="white">2027&#45;06&#45;01</text>
</g>
<!-- n2&#45;&gt;n10 -->
<g id="edge6" class="edge">
<title>n2&#45;&gt;n10</title>
<path fill="none" stroke="#90caf9" stroke-width="1.5" d="M205.5,-287.7C205.5,-276.85 205.5,-262.92 205.5,-252.1"/>
</g>
<!-- n4 -->
<g id="node5" class="node">
<title>n4</title>
<path fill="#558b2f" stroke="#90caf9" d="M59,-180C59,-180 12,-180 12,-180 6,-180 0,-174 0,-168 0,-168 0,-156 0,-156 0,-150 6,-144 12,-144 12,-144 59,-144 59,-144 65,-144 71,-150 71,-156 71,-156 71,-168 71,-168 71,-174 65,-180 59,-180"/>
<text text-anchor="start" x="8" y="-164.2" font-family="monospace" font-size="11.00" fill="white">truncate</text>
<text text-anchor="start" x="9" y="-154.8" font-family="monospace" font-size="9.00" fill="white">2026&#45;06&#45;01</text>
</g>
<!-- n3&#45;&gt;n4 -->
<g id="edge7" class="edge">
<title>n3&#45;&gt;n4</title>
<path fill="none" stroke="#90caf9" stroke-width="1.5" d="M102.5,-215.7C88.7,-204.85 70.99,-190.92 57.25,-180.1"/>
</g>
<!-- n7 -->
<g id="node8" class="node">
<title>n7</title>
<path fill="#558b2f" stroke="#90caf9" d="M148,-180C148,-180 101,-180 101,-180 95,-180 89,-174 89,-168 89,-168 89,-156 89,-156 89,-150 95,-144 101,-144 101,-144 148,-144 148,-144 154,-144 160,-150 160,-156 160,-156 160,-168 160,-168 160,-174 154,-180 148,-180"/>
<text text-anchor="start" x="97" y="-164.2" font-family="monospace" font-size="11.00" fill="white">truncate</text>
<text text-anchor="start" x="98" y="-154.8" font-family="monospace" font-size="9.00" fill="white">2026&#45;12&#45;01</text>
</g>
<!-- n3&#45;&gt;n7 -->
<g id="edge8" class="edge">
<title>n3&#45;&gt;n7</title>
<path fill="none" stroke="#90caf9" stroke-width="1.5" d="M124.5,-215.7C124.5,-204.85 124.5,-190.92 124.5,-180.1"/>
</g>
<!-- n5 -->
<g id="node6" class="node">
<title>n5</title>
<path fill="#00838f" stroke="#90caf9" d="M50.5,-108C50.5,-108 20.5,-108 20.5,-108 14.5,-108 8.5,-102 8.5,-96 8.5,-96 8.5,-84 8.5,-84 8.5,-78 14.5,-72 20.5,-72 20.5,-72 50.5,-72 50.5,-72 56.5,-72 62.5,-78 62.5,-84 62.5,-84 62.5,-96 62.5,-96 62.5,-102 56.5,-108 50.5,-108"/>
<text text-anchor="start" x="18.5" y="-92.2" font-family="monospace" font-size="11.00" fill="white">scale</text>
<text text-anchor="start" x="24.5" y="-82.8" font-family="monospace" font-size="9.00" fill="white">50.0</text>
</g>
<!-- n4&#45;&gt;n5 -->
<g id="edge9" class="edge">
<title>n4&#45;&gt;n5</title>
<path fill="none" stroke="#90caf9" stroke-width="1.5" d="M35.5,-143.7C35.5,-132.85 35.5,-118.92 35.5,-108.1"/>
</g>
<!-- n6 -->
<g id="node7" class="node">
<title>n6</title>
<path fill="#43a047" stroke="#90caf9" d="M55.5,-36C55.5,-36 15.5,-36 15.5,-36 9.5,-36 3.5,-30 3.5,-24 3.5,-24 3.5,-12 3.5,-12 3.5,-6 9.5,0 15.5,0 15.5,0 55.5,0 55.5,0 61.5,0 67.5,-6 67.5,-12 67.5,-12 67.5,-24 67.5,-24 67.5,-30 61.5,-36 55.5,-36"/>
<text text-anchor="middle" x="35.5" y="-15.2" font-family="monospace" font-size="11.00" fill="white">one USD</text>
</g>
<!-- n5&#45;&gt;n6 -->
<g id="edge10" class="edge">
<title>n5&#45;&gt;n6</title>
<path fill="none" stroke="#90caf9" stroke-width="1.5" d="M35.5,-71.7C35.5,-60.85 35.5,-46.92 35.5,-36.1"/>
</g>
<!-- n8 -->
<g id="node9" class="node">
<title>n8</title>
<path fill="#00838f" stroke="#90caf9" d="M139.5,-108C139.5,-108 109.5,-108 109.5,-108 103.5,-108 97.5,-102 97.5,-96 97.5,-96 97.5,-84 97.5,-84 97.5,-78 103.5,-72 109.5,-72 109.5,-72 139.5,-72 139.5,-72 145.5,-72 151.5,-78 151.5,-84 151.5,-84 151.5,-96 151.5,-96 151.5,-102 145.5,-108 139.5,-108"/>
<text text-anchor="start" x="107.5" y="-92.2" font-family="monospace" font-size="11.00" fill="white">scale</text>
<text text-anchor="start" x="113.5" y="-82.8" font-family="monospace" font-size="9.00" fill="white">50.0</text>
</g>
<!-- n7&#45;&gt;n8 -->
<g id="edge11" class="edge">
<title>n7&#45;&gt;n8</title>
<path fill="none" stroke="#90caf9" stroke-width="1.5" d="M124.5,-143.7C124.5,-132.85 124.5,-118.92 124.5,-108.1"/>
</g>
<!-- n9 -->
<g id="node10" class="node">
<title>n9</title>
<path fill="#43a047" stroke="#90caf9" d="M144.5,-36C144.5,-36 104.5,-36 104.5,-36 98.5,-36 92.5,-30 92.5,-24 92.5,-24 92.5,-12 92.5,-12 92.5,-6 98.5,0 104.5,0 104.5,0 144.5,0 144.5,0 150.5,0 156.5,-6 156.5,-12 156.5,-12 156.5,-24 156.5,-24 156.5,-30 150.5,-36 144.5,-36"/>
<text text-anchor="middle" x="124.5" y="-15.2" font-family="monospace" font-size="11.00" fill="white">one USD</text>
</g>
<!-- n8&#45;&gt;n9 -->
<g id="edge12" class="edge">
<title>n8&#45;&gt;n9</title>
<path fill="none" stroke="#90caf9" stroke-width="1.5" d="M124.5,-71.7C124.5,-60.85 124.5,-46.92 124.5,-36.1"/>
</g>
<!-- n11 -->
<g id="node12" class="node">
<title>n11</title>
<path fill="#00838f" stroke="#90caf9" d="M220.5,-180C220.5,-180 190.5,-180 190.5,-180 184.5,-180 178.5,-174 178.5,-168 178.5,-168 178.5,-156 178.5,-156 178.5,-150 184.5,-144 190.5,-144 190.5,-144 220.5,-144 220.5,-144 226.5,-144 232.5,-150 232.5,-156 232.5,-156 232.5,-168 232.5,-168 232.5,-174 226.5,-180 220.5,-180"/>
<text text-anchor="start" x="188.5" y="-164.2" font-family="monospace" font-size="11.00" fill="white">scale</text>
<text text-anchor="start" x="194.5" y="-154.8" font-family="monospace" font-size="9.00" fill="white">50.0</text>
</g>
<!-- n10&#45;&gt;n11 -->
<g id="edge13" class="edge">
<title>n10&#45;&gt;n11</title>
<path fill="none" stroke="#90caf9" stroke-width="1.5" d="M205.5,-215.7C205.5,-204.85 205.5,-190.92 205.5,-180.1"/>
</g>
<!-- n12 -->
<g id="node13" class="node">
<title>n12</title>
<path fill="#43a047" stroke="#90caf9" d="M225.5,-108C225.5,-108 185.5,-108 185.5,-108 179.5,-108 173.5,-102 173.5,-96 173.5,-96 173.5,-84 173.5,-84 173.5,-78 179.5,-72 185.5,-72 185.5,-72 225.5,-72 225.5,-72 231.5,-72 237.5,-78 237.5,-84 237.5,-84 237.5,-96 237.5,-96 237.5,-102 231.5,-108 225.5,-108"/>
<text text-anchor="middle" x="205.5" y="-87.2" font-family="monospace" font-size="11.00" fill="white">one USD</text>
</g>
<!-- n11&#45;&gt;n12 -->
<g id="edge14" class="edge">
<title>n11&#45;&gt;n12</title>
<path fill="none" stroke="#90caf9" stroke-width="1.5" d="M205.5,-143.7C205.5,-132.85 205.5,-118.92 205.5,-108.1"/>
</g>
<!-- n14 -->
<g id="node15" class="node">
<title>n14</title>
<path fill="#00838f" stroke="#90caf9" d="M301.5,-252C301.5,-252 271.5,-252 271.5,-252 265.5,-252 259.5,-246 259.5,-240 259.5,-240 259.5,-228 259.5,-228 259.5,-222 265.5,-216 271.5,-216 271.5,-216 301.5,-216 301.5,-216 307.5,-216 313.5,-222 313.5,-228 313.5,-228 313.5,-240 313.5,-240 313.5,-246 307.5,-252 301.5,-252"/>
<text text-anchor="start" x="269.5" y="-236.2" font-family="monospace" font-size="11.00" fill="white">scale</text>
<text text-anchor="start" x="275.5" y="-226.8" font-family="monospace" font-size="9.00" fill="white">50.0</text>
</g>
<!-- n13&#45;&gt;n14 -->
<g id="edge15" class="edge">
<title>n13&#45;&gt;n14</title>
<path fill="none" stroke="#90caf9" stroke-width="1.5" d="M286.5,-287.7C286.5,-276.85 286.5,-262.92 286.5,-252.1"/>
</g>
<!-- n15 -->
<g id="node16" class="node">
<title>n15</title>
<path fill="#43a047" stroke="#90caf9" d="M306.5,-180C306.5,-180 266.5,-180 266.5,-180 260.5,-180 254.5,-174 254.5,-168 254.5,-168 254.5,-156 254.5,-156 254.5,-150 260.5,-144 266.5,-144 266.5,-144 306.5,-144 306.5,-144 312.5,-144 318.5,-150 318.5,-156 318.5,-156 318.5,-168 318.5,-168 318.5,-174 312.5,-180 306.5,-180"/>
<text text-anchor="middle" x="286.5" y="-159.2" font-family="monospace" font-size="11.00" fill="white">one USD</text>
</g>
<!-- n14&#45;&gt;n15 -->
<g id="edge16" class="edge">
<title>n14&#45;&gt;n15</title>
<path fill="none" stroke="#90caf9" stroke-width="1.5" d="M286.5,-215.7C286.5,-204.85 286.5,-190.92 286.5,-180.1"/>
</g>
<!-- n17 -->
<g id="node18" class="node">
<title>n17</title>
<path fill="#00838f" stroke="#90caf9" d="M382.5,-324C382.5,-324 352.5,-324 352.5,-324 346.5,-324 340.5,-318 340.5,-312 340.5,-312 340.5,-300 340.5,-300 340.5,-294 346.5,-288 352.5,-288 352.5,-288 382.5,-288 382.5,-288 388.5,-288 394.5,-294 394.5,-300 394.5,-300 394.5,-312 394.5,-312 394.5,-318 388.5,-324 382.5,-324"/>
<text text-anchor="start" x="350.5" y="-308.2" font-family="monospace" font-size="11.00" fill="white">scale</text>
<text text-anchor="start" x="351.5" y="-298.8" font-family="monospace" font-size="9.00" fill="white">1000.0</text>
</g>
<!-- n16&#45;&gt;n17 -->
<g id="edge17" class="edge">
<title>n16&#45;&gt;n17</title>
<path fill="none" stroke="#90caf9" stroke-width="1.5" d="M367.5,-359.7C367.5,-348.85 367.5,-334.92 367.5,-324.1"/>
</g>
<!-- n18 -->
<g id="node19" class="node">
<title>n18</title>
<path fill="#43a047" stroke="#90caf9" d="M387.5,-252C387.5,-252 347.5,-252 347.5,-252 341.5,-252 335.5,-246 335.5,-240 335.5,-240 335.5,-228 335.5,-228 335.5,-222 341.5,-216 347.5,-216 347.5,-216 387.5,-216 387.5,-216 393.5,-216 399.5,-222 399.5,-228 399.5,-228 399.5,-240 399.5,-240 399.5,-246 393.5,-252 387.5,-252"/>
<text text-anchor="middle" x="367.5" y="-231.2" font-family="monospace" font-size="11.00" fill="white">one USD</text>
</g>
<!-- n17&#45;&gt;n18 -->
<g id="edge18" class="edge">
<title>n17&#45;&gt;n18</title>
<path fill="none" stroke="#90caf9" stroke-width="1.5" d="M367.5,-287.7C367.5,-276.85 367.5,-262.92 367.5,-252.1"/>
</g>
</g>
</svg>
