<?xml version="1.0" encoding="UTF-8" standalone="no"?>
<!DOCTYPE svg PUBLIC "-//W3C//DTD SVG 1.1//EN"
 "http://www.w3.org/Graphics/SVG/1.1/DTD/svg11.dtd">
<!-- Generated by graphviz version 2.43.0 (0)
 -->
<!-- Title: AST Pages: 1 -->
<svg width="79pt" height="188pt"
 viewBox="0.00 0.00 79.00 188.00" xmlns="http://www.w3.org/2000/svg" xmlns:xlink="http://www.w3.org/1999/xlink">
<g id="graph0" class="graph" transform="scale(1 1) rotate(0) translate(4 184)">
<title>AST</title>
<polygon fill="#fafafa" stroke="transparent" points="-4,4 -4,-184 75,-184 75,4 -4,4"/>
<!-- n0 -->
<g id="node1" class="node">
<title>n0</title>
<path fill="#558b2f" stroke="#90caf9" d="M59,-180C59,-180 12,-180 12,-180 6,-180 0,-174 0,-168 0,-168 0,-156 0,-156 0,-150 6,-144 12,-144 12,-144 59,-144 59,-144 65,-144 71,-150 71,-156 71,-156 71,-168 71,-168 71,-174 65,-180 59,-180"/>
<text text-anchor="start" x="8" y="-164.2" font-family="monospace" font-size="11.00" fill="white">truncate</text>
<text text-anchor="start" x="9" y="-154.8" font-family="monospace" font-size="9.00" fill="white">2027&#45;01&#45;01</text>
</g>
<!-- n1 -->
<g id="node2" class="node">
<title>n1</title>
<path fill="#00838f" stroke="#90caf9" d="M50.5,-108C50.5,-108 20.5,-108 20.5,-108 14.5,-108 8.5,-102 8.5,-96 8.5,-96 8.5,-84 8.5,-84 8.5,-78 14.5,-72 20.5,-72 20.5,-72 50.5,-72 50.5,-72 56.5,-72 62.5,-78 62.5,-84 62.5,-84 62.5,-96 62.5,-96 62.5,-102 56.5,-108 50.5,-108"/>
<text text-anchor="start" x="18.5" y="-92.2" font-family="monospace" font-size="11.00" fill="white">scale</text>
<text text-anchor="start" x="19.5" y="-82.8" font-family="monospace" font-size="9.00" fill="white">1000.0</text>
</g>
<!-- n0&#45;&gt;n1 -->
<g id="edge1" class="edge">
<title>n0&#45;&gt;n1</title>
<path fill="none" stroke="#90caf9" stroke-width="1.5" d="M35.5,-143.7C35.5,-132.85 35.5,-118.92 35.5,-108.1"/>
</g>
<!-- n2 -->
<g id="node3" class="node">
<title>n2</title>
<path fill="#43a047" stroke="#90caf9" d="M55.5,-36C55.5,-36 15.5,-36 15.5,-36 9.5,-36 3.5,-30 3.5,-24 3.5,-24 3.5,-12 3.5,-12 3.5,-6 9.5,0 15.5,0 15.5,0 55.5,0 55.5,0 61.5,0 67.5,-6 67.5,-12 67.5,-12 67.5,-24 67.5,-24 67.5,-30 61.5,-36 55.5,-36"/>
<text text-anchor="middle" x="35.5" y="-15.2" font-family="monospace" font-size="11.00" fill="white">one USD</text>
</g>
<!-- n1&#45;&gt;n2 -->
<g id="edge2" class="edge">
<title>n1&#45;&gt;n2</title>
<path fill="none" stroke="#90caf9" stroke-width="1.5" d="M35.5,-71.7C35.5,-60.85 35.5,-46.92 35.5,-36.1"/>
</g>
</g>
</svg>
