<?xml version="1.0" encoding="UTF-8" standalone="no"?>
<!DOCTYPE svg PUBLIC "-//W3C//DTD SVG 1.1//EN"
 "http://www.w3.org/Graphics/SVG/1.1/DTD/svg11.dtd">
<!-- Generated by graphviz version 2.43.0 (0)
 -->
<!-- Title: AST Pages: 1 -->
<svg width="284pt" height="260pt"
 viewBox="0.00 0.00 283.50 260.00" xmlns="http://www.w3.org/2000/svg" xmlns:xlink="http://www.w3.org/1999/xlink">
<g id="graph0" class="graph" transform="scale(1 1) rotate(0) translate(4 256)">
<title>AST</title>
<polygon fill="#fafafa" stroke="transparent" points="-4,4 -4,-256 279.5,-256 279.5,4 -4,4"/>
<!-- n0 -->
<g id="node1" class="node">
<title>n0</title>
<path fill="#1565c0" stroke="#90caf9" d="M183,-252C183,-252 153,-252 153,-252 147,-252 141,-246 141,-240 141,-240 141,-228 141,-228 141,-222 147,-216 153,-216 153,-216 183,-216 183,-216 189,-216 195,-222 195,-228 195,-228 195,-240 195,-240 195,-246 189,-252 183,-252"/>
<text text-anchor="middle" x="168" y="-231.2" font-family="monospace" font-size="11.00" fill="white">and</text>
</g>
<!-- n1 -->
<g id="node2" class="node">
<title>n1</title>
<path fill="#1565c0" stroke="#90caf9" d="M147,-180C147,-180 117,-180 117,-180 111,-180 105,-174 105,-168 105,-168 105,-156 105,-156 105,-150 111,-144 117,-144 117,-144 147,-144 147,-144 153,-144 159,-150 159,-156 159,-156 159,-168 159,-168 159,-174 153,-180 147,-180"/>
<text text-anchor="middle" x="132" y="-159.2" font-family="monospace" font-size="11.00" fill="white">and</text>
</g>
<!-- n0&#45;&gt;n1 -->
<g id="edge1" class="edge">
<title>n0&#45;&gt;n1</title>
<path fill="none" stroke="#90caf9" stroke-width="1.5" d="M159.1,-215.7C153.52,-204.85 146.36,-190.92 140.8,-180.1"/>
</g>
<!-- n6 -->
<g id="node7" class="node">
<title>n6</title>
<path fill="#e53935" stroke="#90caf9" d="M233,-180C233,-180 203,-180 203,-180 197,-180 191,-174 191,-168 191,-168 191,-156 191,-156 191,-150 197,-144 203,-144 203,-144 233,-144 233,-144 239,-144 245,-150 245,-156 245,-156 245,-168 245,-168 245,-174 239,-180 233,-180"/>
<text text-anchor="middle" x="218" y="-159.2" font-family="monospace" font-size="11.00" fill="white">give</text>
</g>
<!-- n0&#45;&gt;n6 -->
<g id="edge2" class="edge">
<title>n0&#45;&gt;n6</title>
<path fill="none" stroke="#90caf9" stroke-width="1.5" d="M180.36,-215.7C188.11,-204.85 198.06,-190.92 205.78,-180.1"/>
</g>
<!-- n2 -->
<g id="node3" class="node">
<title>n2</title>
<path fill="#00838f" stroke="#90caf9" d="M62,-108C62,-108 12,-108 12,-108 6,-108 0,-102 0,-96 0,-96 0,-84 0,-84 0,-78 6,-72 12,-72 12,-72 62,-72 62,-72 68,-72 74,-78 74,-84 74,-84 74,-96 74,-96 74,-102 68,-108 62,-108"/>
<text text-anchor="start" x="20" y="-92.2" font-family="monospace" font-size="11.00" fill="white">scale</text>
<text text-anchor="start" x="8" y="-82.8" font-family="monospace" font-size="9.00" fill="white">100.0 * OIL</text>
</g>
<!-- n1&#45;&gt;n2 -->
<g id="edge3" class="edge">
<title>n1&#45;&gt;n2</title>
<path fill="none" stroke="#90caf9" stroke-width="1.5" d="M108.52,-143.7C93.79,-132.85 74.89,-118.92 60.21,-108.1"/>
</g>
<!-- n4 -->
<g id="node5" class="node">
<title>n4</title>
<path fill="#00838f" stroke="#90caf9" d="M160,-108C160,-108 104,-108 104,-108 98,-108 92,-102 92,-96 92,-96 92,-84 92,-84 92,-78 98,-72 104,-72 104,-72 160,-72 160,-72 166,-72 172,-78 172,-84 172,-84 172,-96 172,-96 172,-102 166,-108 160,-108"/>
<text text-anchor="start" x="115" y="-92.2" font-family="monospace" font-size="11.00" fill="white">scale</text>
<text text-anchor="start" x="100" y="-82.8" font-family="monospace" font-size="9.00" fill="white">100.0 * 60.0</text>
</g>
<!-- n1&#45;&gt;n4 -->
<g id="edge4" class="edge">
<title>n1&#45;&gt;n4</title>
<path fill="none" stroke="#90caf9" stroke-width="1.5" d="M132,-143.7C132,-132.85 132,-118.92 132,-108.1"/>
</g>
<!-- n3 -->
<g id="node4" class="node">
<title>n3</title>
<path fill="#43a047" stroke="#90caf9" d="M57,-36C57,-36 17,-36 17,-36 11,-36 5,-30 5,-24 5,-24 5,-12 5,-12 5,-6 11,0 17,0 17,0 57,0 57,0 63,0 69,-6 69,-12 69,-12 69,-24 69,-24 69,-30 63,-36 57,-36"/>
<text text-anchor="middle" x="37" y="-15.2" font-family="monospace" font-size="11.00" fill="white">one USD</text>
</g>
<!-- n2&#45;&gt;n3 -->
<g id="edge5" class="edge">
<title>n2&#45;&gt;n3</title>
<path fill="none" stroke="#90caf9" stroke-width="1.5" d="M37,-71.7C37,-60.85 37,-46.92 37,-36.1"/>
</g>
<!-- n5 -->
<g id="node6" class="node">
<title>n5</title>
<path fill="#43a047" stroke="#90caf9" d="M152,-36C152,-36 112,-36 112,-36 106,-36 100,-30 100,-24 100,-24 100,-12 100,-12 100,-6 106,0 112,0 112,0 152,0 152,0 158,0 164,-6 164,-12 164,-12 164,-24 164,-24 164,-30 158,-36 152,-36"/>
<text text-anchor="middle" x="132" y="-15.2" font-family="monospace" font-size="11.00" fill="white">one USD</text>
</g>
<!-- n4&#45;&gt;n5 -->
<g id="edge6" class="edge">
<title>n4&#45;&gt;n5</title>
<path fill="none" stroke="#90caf9" stroke-width="1.5" d="M132,-71.7C132,-60.85 132,-46.92 132,-36.1"/>
</g>
<!-- n7 -->
<g id="node8" class="node">
<title>n7</title>
<path fill="#00838f" stroke="#90caf9" d="M263.5,-108C263.5,-108 202.5,-108 202.5,-108 196.5,-108 190.5,-102 190.5,-96 190.5,-96 190.5,-84 190.5,-84 190.5,-78 196.5,-72 202.5,-72 202.5,-72 263.5,-72 263.5,-72 269.5,-72 275.5,-78 275.5,-84 275.5,-84 275.5,-96 275.5,-96 275.5,-102 269.5,-108 263.5,-108"/>
<text text-anchor="start" x="216" y="-92.2" font-family="monospace" font-size="11.00" fill="white">scale</text>
<text text-anchor="start" x="198.5" y="-82.8" font-family="monospace" font-size="9.00" fill="white">100.0 * 100.0</text>
</g>
<!-- n6&#45;&gt;n7 -->
<g id="edge7" class="edge">
<title>n6&#45;&gt;n7</title>
<path fill="none" stroke="#90caf9" stroke-width="1.5" d="M221.71,-143.7C224.03,-132.85 227.02,-118.92 229.33,-108.1"/>
</g>
<!-- n8 -->
<g id="node9" class="node">
<title>n8</title>
<path fill="#43a047" stroke="#90caf9" d="M253,-36C253,-36 213,-36 213,-36 207,-36 201,-30 201,-24 201,-24 201,-12 201,-12 201,-6 207,0 213,0 213,0 253,0 253,0 259,0 265,-6 265,-12 265,-12 265,-24 265,-24 265,-30 259,-36 253,-36"/>
<text text-anchor="middle" x="233" y="-15.2" font-family="monospace" font-size="11.00" fill="white">one USD</text>
</g>
<!-- n7&#45;&gt;n8 -->
<g id="edge8" class="edge">
<title>n7&#45;&gt;n8</title>
<path fill="none" stroke="#90caf9" stroke-width="1.5" d="M233,-71.7C233,-60.85 233,-46.92 233,-36.1"/>
</g>
</g>
</svg>
